<svg width="117" height="72" viewBox="0 0 117 72" fill="none" xmlns="http://www.w3.org/2000/svg">
<path d="M12.3809 60.5245L14.5095 54.1939C14.6216 53.8601 14.7989 53.5942 15.0417 53.3962C15.2844 53.1982 15.5552 53.0992 15.8539 53.0992H21.4555L19.3409 59.4128C19.2288 59.7523 19.0491 60.0238 18.8017 60.2275C18.5543 60.4255 18.2812 60.5245 17.9825 60.5245H17.0933L18.0455 57.6902H15.2097L14.4255 60.0153C14.3742 60.1681 14.2901 60.2926 14.1734 60.3887C14.0614 60.4792 13.9354 60.5245 13.7953 60.5245H12.3809ZM18.5006 55.9335C18.5847 55.9335 18.643 55.8854 18.6757 55.7893L18.8647 55.2377H16.162C16.078 55.2377 16.0196 55.2858 15.9869 55.3819L15.7979 55.9335H18.5006Z" fill="white"/>
<path d="M19.7933 60.5245L21.9079 54.2109C22.0199 53.8714 22.1997 53.6027 22.4471 53.4047C22.6945 53.201 22.9675 53.0992 23.2663 53.0992H24.1625L22.391 58.3775H27.1034L26.7603 59.4128C26.6482 59.7523 26.4685 60.0238 26.2211 60.2275C25.9737 60.4255 25.6983 60.5245 25.3949 60.5245H19.7933Z" fill="white"/>
<path d="M27.1372 60.5245L29.2517 54.2109C29.3638 53.8714 29.5435 53.6027 29.7909 53.4047C30.0383 53.201 30.3114 53.0992 30.6101 53.0992H31.5064L29.7349 58.3775H34.4472L34.1041 59.4128C33.9921 59.7523 33.8123 60.0238 33.5649 60.2275C33.3175 60.4255 33.0421 60.5245 32.7387 60.5245H27.1372Z" fill="white"/>
<path d="M41.0949 54.2109C41.2069 53.8714 41.3866 53.6027 41.634 53.4047C41.8814 53.201 42.1545 53.0992 42.4533 53.0992H43.3495L41.2349 59.4128C41.1229 59.7523 40.9432 60.0238 40.6958 60.2275C40.4484 60.4255 40.173 60.5245 39.8695 60.5245H38.9733L41.0949 54.2109Z" fill="white"/>
<path d="M41.7861 60.5245L43.9077 54.1939C43.9637 54.0298 44.0361 53.8799 44.1247 53.7441C44.2181 53.6083 44.3231 53.4924 44.4398 53.3962C44.5612 53.3 44.6896 53.2265 44.8249 53.1756C44.965 53.1246 45.1074 53.0992 45.2521 53.0992H50.8606L48.739 59.4128C48.627 59.7523 48.4473 60.0238 48.1999 60.2275C47.9525 60.4255 47.6794 60.5245 47.3807 60.5245H46.4914L48.2629 55.2377H45.5602C45.4761 55.2377 45.4178 55.2858 45.3851 55.3819L43.8377 60.0153C43.7863 60.1681 43.7046 60.2926 43.5926 60.3887C43.4806 60.4792 43.3569 60.5245 43.2215 60.5245H43.2075H41.7861Z" fill="white"/>
<path d="M54.3463 58.8952C54.3977 58.7424 54.4817 58.6208 54.5984 58.5303C54.7104 58.4341 54.8341 58.386 54.9695 58.386H59.2267L59.4578 57.6902H54.7524L55.9218 54.1939C55.9778 54.0298 56.0501 53.8799 56.1388 53.7441C56.2322 53.6083 56.3372 53.4924 56.4539 53.3962C56.5753 53.3 56.7036 53.2265 56.839 53.1756C56.9791 53.1246 57.1214 53.0992 57.2661 53.0992H62.8747L62.3285 54.7285C62.2772 54.8813 62.1932 55.0057 62.0765 55.1019C61.9644 55.1924 61.8407 55.2377 61.7054 55.2377H57.4482L57.2171 55.9335H61.9224L61.1032 58.386L60.7531 59.4128C60.6364 59.7523 60.4544 60.0238 60.207 60.2275C59.9642 60.4255 59.6935 60.5245 59.3947 60.5245H53.8002L54.3463 58.8952Z" fill="white"/>
<path d="M63.4132 54.2109C63.5253 53.8714 63.7027 53.6027 63.9454 53.4047C64.1928 53.201 64.4682 53.0992 64.7716 53.0992H70.3802L68.9728 57.2913C68.8608 57.6307 68.681 57.9023 68.4336 58.106C68.1909 58.304 67.9178 58.403 67.6144 58.403H63.9034L63.3642 60.0153C63.3129 60.1681 63.2289 60.2926 63.1122 60.3887C63.0001 60.4792 62.8764 60.5245 62.7411 60.5245H61.3057L63.4132 54.2109ZM67.2643 56.2475C67.3157 56.2475 67.3623 56.2305 67.4044 56.1966C67.451 56.1627 67.4837 56.1174 67.5024 56.0608L67.7755 55.2462H65.1357C65.0237 55.2462 64.9443 55.3112 64.8977 55.4413L64.6246 56.2475H67.2643Z" fill="white"/>
<path d="M70.8349 54.2109C70.947 53.8714 71.1267 53.6027 71.3741 53.4047C71.6215 53.201 71.8946 53.0992 72.1933 53.0992H77.7878L75.6733 59.4128C75.5612 59.7523 75.3815 60.0238 75.1341 60.2275C74.8867 60.4255 74.6136 60.5245 74.3149 60.5245H68.7203L70.8349 54.2109ZM71.283 58.386H73.9228C73.9975 58.386 74.0628 58.3606 74.1188 58.3096C74.1795 58.2587 74.2239 58.1937 74.2519 58.1145L75.2251 55.2377H72.5854C72.4267 55.2377 72.317 55.3254 72.2563 55.5007L71.283 58.386Z" fill="white"/>
<path d="M78.3357 54.2109C78.4477 53.8714 78.6274 53.6027 78.8749 53.4047C79.1223 53.201 79.3953 53.0992 79.6941 53.0992H85.3096L83.9022 57.2913C83.7902 57.6307 83.6105 57.9023 83.3631 58.106C83.1157 58.304 82.8426 58.403 82.5439 58.403H82.1798L82.894 60.5245H81.0034L80.2962 58.403H78.8328L78.2867 60.0153C78.2353 60.1681 78.1513 60.2926 78.0346 60.3887C77.9226 60.4792 77.7989 60.5245 77.6635 60.5245H76.2351L78.3357 54.2109ZM79.554 56.2475H82.1938C82.2451 56.2475 82.2918 56.2305 82.3338 56.1966C82.3805 56.1627 82.4132 56.1174 82.4318 56.0608L82.7049 55.2462H80.0652C79.9485 55.2462 79.8668 55.3112 79.8201 55.4413L79.554 56.2475Z" fill="white"/>
<path d="M85.5471 55.2462L85.8902 54.2109C86.0022 53.8714 86.1819 53.6027 86.4293 53.4047C86.6768 53.201 86.9498 53.0992 87.2486 53.0992H92.8571L92.507 54.1345C92.395 54.4739 92.2153 54.7455 91.9679 54.9491C91.7252 55.1472 91.4521 55.2462 91.1487 55.2462H89.9303L88.5299 59.4128C88.4179 59.7523 88.2382 60.0238 87.9908 60.2275C87.7434 60.4255 87.4703 60.5245 87.1716 60.5245H86.2753L88.0468 55.2462H85.5471Z" fill="white"/>
<path d="M2.31994 65.1147C2.37118 64.9628 2.45038 64.8419 2.55753 64.7519C2.66933 64.6619 2.79278 64.6169 2.92788 64.6169H4.36037L3.41003 67.452L3.41702 67.4689L5.75094 64.8025C5.86274 64.6787 5.99085 64.6169 6.13527 64.6169H8.44822L4.70976 68.8864C4.72839 68.9202 4.80526 69.0496 4.94036 69.2746C4.99626 69.3758 5.06847 69.5024 5.15698 69.6543C5.25015 69.8005 5.35962 69.9833 5.4854 70.2027C5.61584 70.4221 5.76957 70.6809 5.9466 70.979C6.12362 71.2715 6.32626 71.6119 6.55453 72H4.43724L2.80908 69.2324L2.06139 71.4853C2.01015 71.6428 1.9263 71.7694 1.80983 71.865C1.69803 71.955 1.57225 72 1.43249 72H0L2.31994 65.1147Z" fill="white"/>
<path d="M9.147 65.0894C9.19824 64.9319 9.28209 64.8081 9.39856 64.7181C9.51502 64.6225 9.64313 64.5747 9.78288 64.5747H11.2014L10.3349 67.1482H12.8855C12.974 67.1482 13.0532 67.1201 13.123 67.0638C13.1929 67.0076 13.2442 66.9317 13.2768 66.836L13.8707 65.0809C13.922 64.9234 14.0035 64.7997 14.1153 64.7097C14.2318 64.6197 14.3575 64.5747 14.4926 64.5747H15.8902L14.7302 68.0258C14.6184 68.3633 14.4391 68.6333 14.1922 68.8358C13.9453 69.0327 13.6727 69.1311 13.3746 69.1311H12.1517L11.3691 71.4431C11.3179 71.6006 11.234 71.7272 11.1175 71.8228C11.0057 71.9128 10.8823 71.9578 10.7472 71.9578H9.32169L10.272 69.1311H7.78438L9.147 65.0894Z" fill="white"/>
<path d="M16.4267 65.7222C16.5385 65.3847 16.7179 65.1175 16.9648 64.9206C17.2117 64.7181 17.4842 64.6169 17.7824 64.6169H23.3865L21.982 68.7852C21.8702 69.1227 21.6909 69.3927 21.444 69.5952C21.197 69.7921 20.9245 69.8905 20.6264 69.8905H20.263L20.9758 72H19.0891L18.3833 69.8905H16.9229L16.3778 71.4937C16.3266 71.6456 16.2427 71.7694 16.1263 71.865C16.0145 71.955 15.891 72 15.7559 72H14.3304L16.4267 65.7222ZM17.6426 67.7473H20.277C20.3282 67.7473 20.3748 67.7304 20.4167 67.6967C20.4633 67.6629 20.4959 67.6179 20.5146 67.5617L20.7871 66.7516H18.1527C18.0362 66.7516 17.9547 66.8163 17.9081 66.9457L17.6426 67.7473Z" fill="white"/>
<path d="M24.0708 65.6294C24.1919 65.32 24.3689 65.0753 24.6018 64.8953C24.8394 64.7097 25.1003 64.6169 25.3845 64.6169H30.9817L30.6323 65.6463C30.5205 65.9782 30.3411 66.2454 30.0942 66.4479C29.8473 66.6448 29.5748 66.7432 29.2766 66.7432H25.7897C25.7245 66.7432 25.6663 66.7657 25.615 66.8107C25.5685 66.8501 25.5242 66.8979 25.4823 66.9542C25.4683 66.9879 25.4264 67.1117 25.3565 67.3254C25.3239 67.4154 25.2843 67.5307 25.2377 67.6714C25.1911 67.812 25.1329 67.9864 25.063 68.1945C24.9931 68.397 24.9093 68.6361 24.8115 68.9117C24.7183 69.1874 24.6111 69.508 24.49 69.8737H26.9008C27.0359 69.8737 27.1617 69.8287 27.2781 69.7386C27.3946 69.643 27.4785 69.5193 27.5297 69.3674C27.539 69.3336 27.5483 69.3027 27.5576 69.2746C27.5716 69.2408 27.5833 69.2099 27.5926 69.1818H26.4676C26.5607 68.9005 26.6399 68.6586 26.7051 68.4561C26.775 68.2536 26.8333 68.0848 26.8798 67.9498C26.9311 67.7923 27.0126 67.6686 27.1244 67.5786C27.2409 67.4829 27.3666 67.4351 27.5017 67.4351H30.0243L28.8574 70.8946C28.7456 71.2322 28.5662 71.5022 28.3193 71.7047C28.0771 71.9016 27.8046 72 27.5017 72H21.9255C22.3261 70.8131 22.6825 69.7527 22.9946 68.8189L24.0708 65.6294Z" fill="white"/>
<path d="M31.6798 65.0894C31.7311 64.9319 31.8149 64.8081 31.9314 64.7181C32.0479 64.6225 32.176 64.5747 32.3157 64.5747H33.7342L32.8678 67.1482H35.4183C35.5068 67.1482 35.586 67.1201 35.6559 67.0638C35.7258 67.0076 35.777 66.9317 35.8096 66.836L36.4036 65.0809C36.4548 64.9234 36.5363 64.7997 36.6481 64.7097C36.7646 64.6197 36.8904 64.5747 37.0255 64.5747H38.423L37.2631 68.0258C37.1513 68.3633 36.9719 68.6333 36.725 68.8358C36.4781 69.0327 36.2056 69.1311 35.9074 69.1311H34.6846L33.9019 71.4431C33.8507 71.6006 33.7668 71.7272 33.6504 71.8228C33.5386 71.9128 33.4151 71.9578 33.28 71.9578H31.8545L32.8049 69.1311H30.3172L31.6798 65.0894Z" fill="white"/>
<path d="M37.1148 70.6584C37.1986 70.4052 37.3151 70.1746 37.4642 69.9665C37.6133 69.7583 37.7856 69.5811 37.9813 69.4349L41.7127 66.7432H38.5473L38.8967 65.7054C38.9526 65.5422 39.0248 65.3931 39.1133 65.2581C39.2065 65.1231 39.3113 65.0078 39.4277 64.9122C39.5489 64.8166 39.677 64.7434 39.8121 64.6928C39.9518 64.6422 40.0939 64.6169 40.2383 64.6169H45.8355L45.3045 66.1863C45.1833 66.5632 44.9784 66.8501 44.6895 67.047L40.7834 69.8737H43.9488L43.6064 70.8946C43.4946 71.2322 43.3153 71.5022 43.0684 71.7047C42.8215 71.9016 42.549 72 42.2508 72H36.6606L37.1148 70.6584Z" fill="white"/>
<path d="M50.8606 65.7222C50.9724 65.3847 51.1518 65.1175 51.3987 64.9206C51.6456 64.7181 51.9181 64.6169 52.2163 64.6169H57.8204L56.4159 68.7852C56.3041 69.1227 56.1247 69.3927 55.8778 69.5952C55.6309 69.7921 55.3584 69.8905 55.0603 69.8905H54.6969L55.4097 72H53.523L52.8172 69.8905H51.3568L50.8117 71.4937C50.7605 71.6456 50.6766 71.7694 50.5601 71.865C50.4483 71.955 50.3249 72 50.1898 72H48.7643L50.8606 65.7222ZM52.0765 67.7473H54.7109C54.7621 67.7473 54.8087 67.7304 54.8506 67.6967C54.8972 67.6629 54.9298 67.6179 54.9485 67.5617L55.221 66.7516H52.5866C52.4701 66.7516 52.3886 66.8163 52.342 66.9457L52.0765 67.7473Z" fill="white"/>
<path d="M56.2616 72C56.2616 72 56.2919 71.91 56.3524 71.73C56.413 71.5444 56.4945 71.3025 56.597 71.0043C56.6948 70.7062 56.8089 70.3687 56.9394 69.9918C57.0652 69.6093 57.1956 69.2183 57.3307 68.8189C57.4658 68.4195 57.5962 68.0314 57.722 67.6545C57.8525 67.272 57.9666 66.9317 58.0644 66.6335C58.1669 66.3298 58.2484 66.0879 58.309 65.9079C58.3742 65.7222 58.4068 65.6294 58.4068 65.6294C58.5279 65.32 58.705 65.0753 58.9379 64.8953C59.1755 64.7097 59.4364 64.6169 59.7205 64.6169H65.3177L64.9683 65.6463C64.8565 65.9782 64.6772 66.2454 64.4303 66.4479C64.1834 66.6448 63.9109 66.7432 63.6127 66.7432H60.1258C59.9674 66.7432 59.8556 66.8332 59.7904 67.0132L59.6437 67.4351H62.6274L62.2082 68.667C62.1569 68.8245 62.0731 68.9511 61.9566 69.0467C61.8448 69.1367 61.719 69.1818 61.5793 69.1818H59.3013C59.1429 69.1818 59.0311 69.2718 58.9658 69.4518L58.8261 69.8737H63.5358L63.1934 70.8946C63.0816 71.2322 62.9023 71.5022 62.6554 71.7047C62.4085 71.9016 62.136 72 61.8378 72H56.2616Z" fill="white"/>
<path d="M65.8575 65.7222C65.9693 65.3847 66.1463 65.1175 66.3885 64.9206C66.6354 64.7181 66.9103 64.6169 67.2131 64.6169H72.8103L71.4058 68.7852C71.294 69.1227 71.1146 69.3927 70.8677 69.5952C70.6255 69.7921 70.3529 69.8905 70.0501 69.8905H66.3466L65.8086 71.4937C65.7573 71.6456 65.6735 71.7694 65.557 71.865C65.4452 71.955 65.3217 72 65.1866 72H63.7542L65.8575 65.7222ZM69.7008 67.7473C69.752 67.7473 69.7986 67.7304 69.8405 67.6967C69.8871 67.6629 69.9197 67.6179 69.9383 67.5617L70.2109 66.7516H67.5765C67.4647 66.7516 67.3855 66.8163 67.3389 66.9457L67.0664 67.7473H69.7008Z" fill="white"/>
<path d="M73.2991 65.6294C73.4202 65.32 73.5972 65.0753 73.8301 64.8953C74.0677 64.7097 74.3286 64.6169 74.6128 64.6169H75.4932L73.7113 69.8737H76.3527C76.4226 69.8737 76.4855 69.8512 76.5414 69.8062C76.602 69.7555 76.6462 69.688 76.6742 69.6036L78.1905 65.1231C78.2418 64.9713 78.3233 64.8503 78.4351 64.7603C78.5516 64.6647 78.6773 64.6169 78.8124 64.6169H80.21L78.0927 70.8946C77.9809 71.2322 77.8015 71.5022 77.5546 71.7047C77.3077 71.9016 77.0352 72 76.7371 72H71.1538C71.5545 70.8131 71.9108 69.7555 72.223 68.8274C72.3581 68.428 72.4885 68.037 72.6143 67.6545C72.7447 67.272 72.8612 66.9317 72.9637 66.6335C73.0661 66.3354 73.1477 66.0935 73.2082 65.9079C73.2688 65.7222 73.2991 65.6294 73.2991 65.6294Z" fill="white"/>
<path d="M80.6985 65.6294C80.815 65.32 80.992 65.0753 81.2296 64.8953C81.4672 64.7097 81.7281 64.6169 82.0122 64.6169H87.6024L86.694 67.3085C86.5915 67.6123 86.4285 67.8542 86.2049 68.0342C85.9813 68.2142 85.7344 68.3042 85.4642 68.3042H85.3594C85.4805 68.3042 85.5876 68.338 85.6808 68.4055C85.7786 68.473 85.8555 68.5602 85.9114 68.667C85.972 68.7683 86.0092 68.8864 86.0232 69.0214C86.0372 69.1508 86.0232 69.283 85.9813 69.418L85.4851 70.8946C85.3733 71.2322 85.194 71.5022 84.9471 71.7047C84.7002 71.9016 84.4277 72 84.1295 72H78.5463C78.9469 70.8131 79.3056 69.7527 79.6224 68.8189L80.6985 65.6294ZM81.1108 69.8737H83.7172C83.7359 69.8737 83.7568 69.8737 83.7801 69.8737C83.8034 69.868 83.8244 69.8596 83.843 69.8483C83.857 69.8427 83.8756 69.8315 83.8989 69.8146C83.9269 69.7921 83.9478 69.7724 83.9618 69.7555C83.9898 69.7274 84.0154 69.6852 84.0387 69.629C84.0433 69.6233 84.0457 69.6205 84.0457 69.6205C84.0457 69.6149 84.048 69.6093 84.0527 69.6036L84.1924 69.1818H81.593C81.4346 69.1818 81.3228 69.2718 81.2575 69.4518L81.1108 69.8737ZM84.5418 67.4351H84.5907C84.6047 67.4351 84.6163 67.4323 84.6257 67.4267C84.6396 67.421 84.6513 67.4154 84.6606 67.4098C84.6699 67.4042 84.6792 67.4014 84.6885 67.4014C84.6979 67.3957 84.7072 67.3901 84.7165 67.3845C84.7398 67.3732 84.7677 67.3479 84.8004 67.3085C84.833 67.2635 84.8539 67.227 84.8632 67.1989C84.8632 67.1876 84.8632 67.182 84.8632 67.182C84.8679 67.1764 84.8702 67.1707 84.8702 67.1651L85.017 66.7432H82.4105C82.2568 66.7432 82.1473 66.8332 82.0821 67.0132L81.9354 67.4351H84.5418Z" fill="white"/>
<path d="M86.1507 72L88.261 65.7222C88.3728 65.3847 88.5521 65.1175 88.799 64.9206C89.0459 64.7181 89.3185 64.6169 89.6166 64.6169H90.511L88.7431 69.8652H93.4459L93.1035 70.8946C92.9917 71.2322 92.8123 71.5022 92.5654 71.7047C92.3185 71.9016 92.0437 72 91.7409 72H86.1507Z" fill="white"/>
<path d="M95.59 65.7222C95.7018 65.3847 95.8811 65.1175 96.128 64.9206C96.3749 64.7181 96.6474 64.6169 96.9456 64.6169H97.84L95.7297 70.8946C95.6179 71.2322 95.4386 71.5022 95.1917 71.7047C94.9448 71.9016 94.6699 72 94.3671 72H93.4727L95.59 65.7222Z" fill="white"/>
<path d="M96.1819 72C96.1819 72 96.2122 71.91 96.2728 71.73C96.3333 71.5444 96.4149 71.3025 96.5174 71.0043C96.6152 70.7062 96.7293 70.3687 96.8598 69.9918C96.9855 69.6093 97.116 69.2183 97.2511 68.8189C97.3862 68.4195 97.5166 68.0314 97.6424 67.6545C97.7728 67.272 97.887 66.9317 97.9848 66.6335C98.0873 66.3298 98.1688 66.0879 98.2294 65.9079C98.2946 65.7222 98.3272 65.6294 98.3272 65.6294C98.4483 65.32 98.6253 65.0753 98.8583 64.8953C99.0958 64.7097 99.3567 64.6169 99.6409 64.6169H105.238L104.889 65.6463C104.777 65.9782 104.598 66.2454 104.351 66.4479C104.104 66.6448 103.831 66.7432 103.533 66.7432H100.046C99.8878 66.7432 99.776 66.8332 99.7108 67.0132L98.7465 69.8737H103.456L103.114 70.8946C103.002 71.2322 102.823 71.5022 102.576 71.7047C102.329 71.9016 102.056 72 101.758 72H96.1819Z" fill="white"/>
<path d="M60.4421 16.1449C60.7446 15.1059 61.2816 14.2186 61.9785 13.6059C62.6673 12.9925 63.478 12.6696 64.3057 12.6792H71.5747L62.9925 40.8682C62.7205 41.7543 62.2582 42.5129 61.664 43.0484C61.0698 43.5838 60.3703 43.8721 59.6537 43.8769H52L60.4421 16.1449ZM62.1305 10.9812L64.5313 3.00884C64.7976 2.11586 65.2626 1.35368 65.8635 0.825327C66.466 0.280075 67.1782 -0.00769058 67.9058 0.000156308H75.5238L73.085 7.93447C72.8224 8.83329 72.3636 9.60574 71.7681 10.1514C71.1727 10.697 70.4681 10.9906 69.7462 10.9939L62.1305 10.9812Z" fill="#ED2840"/>
<path d="M71.0379 34.227C71.3127 33.3419 71.7783 32.5842 72.3762 32.0492C72.974 31.5142 73.6776 31.2257 74.3985 31.2199H97.3282L98.575 27.112H73.2258L79.529 6.46477C79.8273 5.50601 80.2296 4.61043 80.7233 3.80654C81.2093 3.01395 81.7817 2.3222 82.4215 1.75419C83.0618 1.18739 83.7611 0.748159 84.4971 0.450459C85.2371 0.150055 86.0068 -0.00177277 86.7806 1.56161e-05H117L114.048 9.62102C113.776 10.5051 113.313 11.263 112.718 11.8001C112.124 12.3372 111.423 12.6296 110.704 12.6409H87.7551L86.5083 16.7646H111.867L107.451 31.2484L105.566 37.3135C104.972 39.2604 103.953 40.9271 102.64 42.1002C101.346 43.2733 99.8124 43.8931 98.2454 43.8766H68.0952L71.0379 34.227Z" fill="#ED2840"/>
<path d="M46.5054 43.8769H16.182C14.5629 43.8769 13.4498 43.2846 12.8429 42.1001C12.2359 40.9155 12.2271 39.3196 12.8164 37.3122L14.6109 31.2456L18.9902 16.7582H44.4923L45.7415 12.6334H22.68C21.9465 12.6334 21.4373 12.3574 21.1522 11.8053C20.8671 11.2532 20.8607 10.5266 21.133 9.62553L24.0325 0.00215385H54.4184C55.1082 -0.0202775 55.7949 0.132677 56.4411 0.452699C56.9595 0.71016 57.4091 1.16375 57.7335 1.75676C58.042 2.36269 58.2013 3.0796 58.1899 3.80962C58.1781 4.72303 58.0355 5.62522 57.7695 6.46851L49.5573 33.5793L26.0311 27.1209L24.782 31.2297L47.6667 32.0579C48.4001 32.0579 49.0998 31.5058 49.3833 32.0579C49.6668 32.61 49.674 33.3366 49.4049 34.2377L46.5054 43.8769Z" fill="#ED2840"/>
</svg>
